<?xml version="1.0" encoding="UTF-8"?>
<svg width="24px" height="13px" viewBox="0 0 24 13" version="1.1" xmlns="http://www.w3.org/2000/svg" xmlns:xlink="http://www.w3.org/1999/xlink">
    <defs></defs>
    <g id="Symbols" stroke="none" stroke-width="1" fill="none" fill-rule="evenodd">
        <g id="page-1" transform="translate(-226.000000, -286.000000)">
            <g id="1.-Stock-Take-Record-(-sessions-page)-Copy" transform="translate(0.000000, 2.000000)">
                <g id="1.-Stock-Take-Record-(-sessions-page)" transform="translate(0.000000, -2.000000)">
                    <g id="SIDE/topBAR">
                        <g id="new-side-bar">
                            <g id="Group-3" transform="translate(227.000000, 287.000000)">
                                <path d="M9.77777778,11 L1.00246167,11 C0.448817378,11 0,10.555163 0,10.0044225 L0,0.995577499 C0,0.445735229 0.43945834,0 1.00246167,0 L9.77777778,0 C9.77777778,0.675014694 10.3249853,1.22222222 11,1.22222222 C11.6750147,1.22222222 12.2222222,0.675014694 12.2222222,5.06261699e-14 L20.9975383,0 C21.5511826,0 22,0.444836974 22,0.995577499 L22,10.0044225 C22,10.5542648 21.5605417,11 20.9975383,11 L12.2222222,11 C12.2222222,10.3249853 11.6750147,9.77777778 11,9.77777778 C10.3249853,9.77777778 9.77777778,10.3249853 9.77777778,11 Z" id="Combined-Shape" stroke="#FFFFFF"></path>
                                <path d="M3.415,7 L3.415,4.4 L2.755,4.91 L2.32,4.315 L3.485,3.46 L4.255,3.46 L4.255,7 L3.415,7 Z M8.235,5.81 C8.235,6.010001 8.1983337,6.1899992 8.125,6.35 C8.0516663,6.5100008 7.9516673,6.64499945 7.825,6.755 C7.6983327,6.86500055 7.55000085,6.94916637 7.38,7.0075 C7.20999915,7.06583362 7.03000095,7.095 6.84,7.095 C6.6466657,7.095 6.46583417,7.06583362 6.2975,7.0075 C6.12916582,6.94916637 5.9816673,6.86500055 5.855,6.755 C5.7283327,6.64499945 5.6283337,6.51166745 5.555,6.355 C5.4816663,6.19833255 5.445,6.0233343 5.445,5.83 C5.445,5.61999895 5.4816663,5.42916752 5.555,5.2575 C5.6283337,5.08583247 5.72333275,4.91166755 5.84,4.735 L6.695,3.46 L7.71,3.46 L6.84,4.67 L6.825,4.695 C6.8583335,4.6816666 6.8983331,4.6716667 6.945,4.665 C6.9916669,4.6583333 7.0349998,4.655 7.075,4.655 C7.2283341,4.655 7.37583262,4.68249972 7.5175,4.7375 C7.65916737,4.79250027 7.78249947,4.87083282 7.8875,4.9725 C7.99250052,5.07416717 8.07666635,5.19583262 8.14,5.3375 C8.20333365,5.47916737 8.235,5.6366658 8.235,5.81 Z M7.395,5.83 C7.395,5.6699992 7.3450005,5.53750052 7.245,5.4325 C7.1449995,5.32749947 7.0116675,5.275 6.845,5.275 C6.6783325,5.275 6.54333385,5.32666615 6.44,5.43 C6.33666615,5.53333385 6.285,5.6683325 6.285,5.835 C6.285,5.9883341 6.3349995,6.11999945 6.435,6.23 C6.5350005,6.34000055 6.66999915,6.395 6.84,6.395 C7.0066675,6.395 7.14083282,6.34333385 7.2425,6.24 C7.34416717,6.13666615 7.395,6.00000085 7.395,5.83 Z" id="16" fill="#FFFFFF"></path>
                                <path d="M14.415,7 L14.415,4.4 L13.755,4.91 L13.32,4.315 L14.485,3.46 L15.255,3.46 L15.255,7 L14.415,7 Z M19.23,5.22 C19.23,5.47000125 19.2050002,5.7083322 19.155,5.935 C19.1049997,6.1616678 19.0250005,6.36083248 18.915,6.5325 C18.8049994,6.70416753 18.6625009,6.84083283 18.4875,6.9425 C18.3124991,7.04416718 18.1000012,7.095 17.85,7.095 C17.5999987,7.095 17.3866675,7.04416718 17.21,6.9425 C17.0333324,6.84083283 16.8891672,6.70416753 16.7775,6.5325 C16.6658328,6.36083248 16.5850002,6.1616678 16.535,5.935 C16.4849997,5.7083322 16.46,5.47000125 16.46,5.22 C16.46,4.96999875 16.4849997,4.73250113 16.535,4.5075 C16.5850002,4.28249888 16.6658328,4.08583418 16.7775,3.9175 C16.8891672,3.74916583 17.0333324,3.6150005 17.21,3.515 C17.3866675,3.4149995 17.5999987,3.365 17.85,3.365 C18.1000012,3.365 18.3124991,3.4149995 18.4875,3.515 C18.6625009,3.6150005 18.8049994,3.74916583 18.915,3.9175 C19.0250005,4.08583418 19.1049997,4.28249888 19.155,4.5075 C19.2050002,4.73250113 19.23,4.96999875 19.23,5.22 Z M18.37,5.22 C18.37,5.10999945 18.3633334,4.988334 18.35,4.855 C18.3366666,4.721666 18.3116668,4.59750058 18.275,4.4825 C18.2383331,4.36749943 18.1858337,4.27083373 18.1175,4.1925 C18.0491663,4.11416628 17.9600005,4.075 17.85,4.075 C17.7399994,4.075 17.6500003,4.11416628 17.58,4.1925 C17.5099996,4.27083373 17.4558335,4.36749943 17.4175,4.4825 C17.3791665,4.59750058 17.3533334,4.721666 17.34,4.855 C17.3266666,4.988334 17.32,5.10999945 17.32,5.22 C17.32,5.3333339 17.3266666,5.45749933 17.34,5.5925 C17.3533334,5.72750068 17.3791665,5.85249943 17.4175,5.9675 C17.4558335,6.08250058 17.5099996,6.17916628 17.58,6.2575 C17.6500003,6.33583373 17.7399994,6.375 17.85,6.375 C17.9600005,6.375 18.0491663,6.33583373 18.1175,6.2575 C18.1858337,6.17916628 18.2383331,6.08250058 18.275,5.9675 C18.3116668,5.85249943 18.3366666,5.72750068 18.35,5.5925 C18.3633334,5.45749933 18.37,5.3333339 18.37,5.22 Z" id="10" fill="#FFFFFF"></path>
                                <rect id="Rectangle" fill="#FFFFFF" x="10" y="5" width="2" height="1"></rect>
                            </g>
                        </g>
                    </g>
                </g>
            </g>
        </g>
    </g>
</svg>